<svg aria-hidden="true" style="position: absolute; width: 0; height: 0; overflow: hidden;" version="1.1"
	xmlns="http://www.w3.org/2000/svg" xmlns:xlink="http://www.w3.org/1999/xlink">

	<symbol id="html" viewBox="0 0 384 512">
		<path d="M0 32l34.9 395.8L191.5 480l157.6-52.2L384 32H0zm308.2 127.9H124.4l4.1 49.4h175.6l-13.6 148.4-97.9 27v.3h-1.1l-98.7-27.3-6-75.8h47.7L138 320l53.5 14.5 53.7-14.5 6-62.2H84.3L71.5 112.2h241.1l-4.4 47.7z" />
	</symbol>

	<symbol id="css" viewBox="0 0 384 512">
		<path d="M0 32l34.9 395.8L192 480l157.1-52.2L384 32H0zm313.1 80l-4.8 47.3L193 208.6l-.3 .1h111.5l-12.8 146.6-98.2 28.7-98.8-29.2-6.4-73.9h48.9l3.2 38.3 52.6 13.3 54.7-15.4 3.7-61.6-166.3-.5v-.1l-.2 .1-3.6-46.3L193.1 162l6.5-2.7H76.7L70.9 112h242.2z" />
	</symbol>

	<symbol id="js" viewBox="0 0 448 512">
		<path d="M0 32v448h448V32H0zm243.8 349.4c0 43.6-25.6 63.5-62.9 63.5-33.7 0-53.2-17.4-63.2-38.5l34.3-20.7c6.6 11.7 12.6 21.6 27.1 21.6 13.8 0 22.6-5.4 22.6-26.5V237.7h42.1v143.7zm99.6 63.5c-39.1 0-64.4-18.6-76.7-43l34.3-19.8c9 14.7 20.8 25.6 41.5 25.6 17.4 0 28.6-8.7 28.6-20.8 0-14.4-11.4-19.5-30.7-28l-10.5-4.5c-30.4-12.9-50.5-29.2-50.5-63.5 0-31.6 24.1-55.6 61.6-55.6 26.8 0 46 9.3 59.8 33.7L368 290c-7.2-12.9-15-18-27.1-18-12.3 0-20.1 7.8-20.1 18 0 12.6 7.8 17.7 25.9 25.6l10.5 4.5c35.8 15.3 55.9 31 55.9 66.2 0 37.8-29.8 58.6-69.7 58.6z" />
	</symbol>

	<symbol id="jedi" viewBox="0 0 576 512">
		<path d="M246 315.7l-21.2-31.9c-2.1-3.2-1.7-7.4 1-10.1s6.9-3.1 10.1-1l29.5 19.7c2.1 1.4 4.9 0 5-2.6L279.7 8c.1-4.5 3.8-8 8.3-8s8.1 3.5 8.3 8l9.4 281.9c.1 2.5 2.9 3.9 5 2.6l29.5-19.7c3.2-2.1 7.4-1.7 10.1 1s3.1 6.9 1 10.1L330 315.7c-1.3 1.9-.2 4.5 2 4.9l37.6 7.5c3.7 .7 6.4 4 6.4 7.8s-2.7 7.1-6.4 7.8L332 351.4c-2.2 .4-3.3 3-2 4.9l21.2 31.9c2.1 3.2 1.7 7.4-1 10.1s-6.9 3.1-10.1 1l-26.3-17.6c-2.2-1.4-5.1 .2-5 2.8l2.1 61.5C370.6 435.2 416 382.9 416 320c0-37-15.7-70.4-40.8-93.7c-7-6.5-6.5-18.6 1-24.4C410.1 175.5 432 134.3 432 88c0-16.8-2.9-33-8.2-48c-4.6-13 10.2-30 21.4-22c53.5 38 92.7 94.8 107.8 160.7c.5 2.1-.2 4.3-1.7 5.9l-28.4 28.4c-4 4-1.2 10.9 4.5 10.9l26 0c3.4 0 6.2 2.6 6.3 6c.1 3.3 .2 6.6 .2 10c0 17.5-1.7 34.7-4.8 51.3c-.2 1.2-.9 2.4-1.7 3.3l-46.5 46.5c-4 4-1.2 10.9 4.5 10.9l14.6 0c4.6 0 7.7 4.8 5.7 9C487.2 450.5 394.8 512 288 512S88.8 450.5 44.3 361c-2.1-4.2 1-9 5.7-9l14.6 0c5.7 0 8.6-6.9 4.5-10.9L22.6 294.6c-.9-.9-1.5-2-1.7-3.3C17.7 274.7 16 257.5 16 240c0-3.3 .1-6.7 .2-10c.1-3.4 2.9-6 6.3-6l26 0c5.7 0 8.6-6.9 4.5-10.9L24.6 184.6c-1.5-1.5-2.2-3.8-1.7-5.9C38.1 112.8 77.3 56 130.8 18c11.3-8 26 8.9 21.4 22c-5.3 15-8.2 31.2-8.2 48c0 46.3 21.9 87.5 55.8 113.9c7.5 5.8 8 17.9 1 24.4C175.7 249.6 160 283 160 320c0 62.9 45.4 115.2 105.1 126l2.1-61.5c.1-2.6-2.8-4.2-5-2.8l-26.3 17.6c-3.2 2.1-7.4 1.7-10.1-1s-3.1-6.9-1-10.1L246 356.3c1.3-1.9 .2-4.5-2-4.9l-37.6-7.5c-3.7-.7-6.4-4-6.4-7.8s2.7-7.1 6.4-7.8l37.6-7.5c2.2-.4 3.3-3 2-4.9z" />
	</symbol>	

	<symbol id="senate" viewBox="0 0 576 512">
		<path d="M249.9 33.5v26.1C236.3 80.2 226 168.1 225.4 274.9c11.7-15.6 19.1-33.3 19.1-48.2v-16.9c0-5.3 .8-10.5 2.2-15.7 .7-2.1 1.4-4.1 2.6-5.8 1.2-1.8 3.4-3.8 6.7-3.8 3.2 0 5.5 2.1 6.7 3.8 1.2 1.8 2 3.7 2.6 5.8 1.4 5.1 2.2 10.3 2.2 15.7v16.9c0 14.9 7.4 32.6 19.1 48.2-.6-106.8-10.9-194.7-24.5-215.4V33.5h-12.3zm-26.3 147.8c-9.5 2.2-18.7 5.2-27.5 9.1 8.9 16.1 9.8 32.6 1.7 37.3-8 4.6-21.9-4.2-31.4-19.8-11.6 8.8-21.9 19.3-30.6 31.1 14.7 9.6 22.9 22.9 18.3 30.7-4.5 7.7-20 7.1-35.5-1-5.8 13.3-9.8 27.5-11.7 42.4 9.7 .2 18.7 2.4 26.2 6 17.8-.3 32.8-2 40.5-4.2 5.6-26.4 23-48.2 46.3-59.5 .7-25.6 1.9-49.7 3.5-72.1zm65 0c1.6 22.4 2.8 46.5 3.5 72.1 23.3 11.3 40.8 33.2 46.3 59.5 7.7 2.3 22.7 3.9 40.5 4.2 7.5-3.7 16.5-5.9 26.2-6-1.9-14.9-5.9-29.2-11.7-42.4-15.4 8.1-30.9 8.7-35.5 1-4.6-7.7 3.6-21.1 18.3-30.7-8.7-11.8-19-22.3-30.6-31.1-9.5 15.6-23.4 24.4-31.4 19.8-8.1-4.7-7.2-21.2 1.7-37.3a147.5 147.5 0 0 0 -27.5-9.1zm-32.5 8.6c-3.2 0-5.9 8.8-6.1 19.9h-.1v16.9c0 41.4-49 95-93.5 95-52 0-122.8-1.5-156.4 29.2v2.5c9.4 17.1 20.6 33.2 33.2 48C45.7 380.3 84.8 360.4 141.2 360c45.7 1 79 20.3 90.8 40.9 0 0 0 0 0 .1 7.7 2.1 15.9 3.2 24 3.2 8.2 0 16.4-1.1 24-3.2 0 0 0 0 0-.1 11.7-20.5 45.1-39.9 90.8-40.9 56.4 .4 95.5 20.3 108 41.4 12.6-14.8 23.8-30.9 33.2-48v-2.5c-33.6-30.6-104.4-29.2-156.4-29.2-44.5 0-93.5-53.6-93.5-95v-16.9h-.1c-.2-11.1-2.9-19.9-6.1-19.9zm0 96.6c22.4 0 40.6 18.2 40.6 40.6s-18.2 40.7-40.6 40.7-40.6-18.2-40.6-40.7c0-22.4 18.2-40.6 40.6-40.6zm0 7.6c-18.2 0-33 14.8-33 33S237.8 360 256 360s33-14.8 33-33-14.8-33-33-33zm0 6.1c14.8 0 26.8 12 26.8 26.8s-12 26.8-26.8 26.8-26.8-12-26.8-26.8 12-26.8 26.8-26.8zm-114.8 66.7c-10.2 .1-21.6 .4-30.5 1.7 .4 4.4 1.5 18.6 7.1 29.8 9.1-2.6 18.4-3.9 27.6-3.9 41.3 .9 71.5 34.4 78.3 74.5l.1 4.7c10.4 1.9 21.2 2.9 32.2 2.9 11 0 21.8-1 32.2-2.9l.1-4.7c6.8-40.1 37-73.5 78.3-74.5 9.3 0 18.5 1.3 27.6 3.9 5.6-11.1 6.7-25.3 7.1-29.8-8.9-1.3-20.3-1.6-30.5-1.7-18.8 .4-35.2 4.2-48.6 9.7-12.5 16-29.2 30-49.6 33.1-.1 0-.2 0-.3 .1-.1 0-.1 0-.2 .1-5.2 1.1-10.6 1.6-16.2 1.6-5.6 0-11-.5-16.2-1.6-.1 0-.1 0-.2-.1-.1 0-.2 0-.3-.1-20.4-3-37-17-49.6-33.1-13.4-5.5-29.9-9.3-48.6-9.7z" />
	</symbol>

	<symbol id="setting" viewBox="0 -960 960 960">
		<path d="m370-80-16-128q-13-5-24.5-12T307-235l-119 50L78-375l103-78q-1-7-1-13.5v-27q0-6.5 1-13.5L78-585l110-190 119 50q11-8 23-15t24-12l16-128h220l16 128q13 5 24.5 12t22.5 15l119-50 110 190-103 78q1 7 1 13.5v27q0 6.5-2 13.5l103 78-110 190-118-50q-11 8-23 15t-24 12L590-80H370Zm70-80h79l14-106q31-8 57.5-23.5T639-327l99 41 39-68-86-65q5-14 7-29.5t2-31.5q0-16-2-31.5t-7-29.5l86-65-39-68-99 42q-22-23-48.5-38.5T533-694l-13-106h-79l-14 106q-31 8-57.5 23.5T321-633l-99-41-39 68 86 64q-5 15-7 30t-2 32q0 16 2 31t7 30l-86 65 39 68 99-42q22 23 48.5 38.5T427-266l13 106Zm42-180q58 0 99-41t41-99q0-58-41-99t-99-41q-59 0-99.5 41T342-480q0 58 40.5 99t99.5 41Zm-2-140Z"/>
	</symbol>

</svg>







